<svg xmlns="http://www.w3.org/2000/svg" width="159" height="26" fill="none"><path fill="#7EE3EB" d="M6.335 17.08H0l.537 1.396h1.718v7.301H4.08v-7.301h2.255V17.08ZM12.883 22.126c0-.644-.107-1.288-.429-1.825-.322-.537-.644-.966-1.181-1.181-.537-.322-1.074-.43-1.718-.43-.644 0-1.288.108-1.825.43-.537.322-.967.752-1.181 1.288-.322.537-.43 1.181-.43 1.933s.108 1.288.43 1.825c.322.537.751.967 1.288 1.289.537.322 1.074.43 1.825.43.86 0 1.503-.216 2.04-.645.537-.43.967-.966 1.181-1.61h-1.932c-.322.536-.752.858-1.396.858-.43 0-.859-.107-1.181-.43-.322-.321-.43-.643-.537-1.18h5.046v-.752Zm-5.046-.43c.107-.429.215-.858.537-1.073.322-.215.644-.43 1.074-.43.43 0 .859.108 1.18.43.323.322.43.644.537 1.074H7.838ZM24.91 23.737l-1.718-6.657h-1.933l-1.718 6.764-1.61-6.764h-1.826l2.363 8.697h2.04l1.718-6.227 1.61 6.227h2.04l2.47-8.697h-1.933l-1.503 6.657ZM34.681 19.12a2.972 2.972 0 0 0-1.396-.322c-.43 0-.859.107-1.288.215-.322.214-.644.429-.86.751v-3.221H29.42v9.234h1.718V21.91c0-.536.107-.966.43-1.288.321-.322.643-.43 1.18-.43.43 0 .86.108 1.074.43.322.322.43.752.43 1.288v3.866h1.717v-4.08c0-.645-.107-1.181-.322-1.61-.322-.43-.644-.752-.966-.967ZM42.519 19.872c-.215-.323-.537-.537-.967-.752a2.971 2.971 0 0 0-1.395-.322c-.645 0-1.074.107-1.61.43-.43.321-.86.75-1.182 1.288-.322.537-.43 1.18-.43 1.825 0 .752.108 1.288.43 1.825.322.537.644.967 1.181 1.289.43.322.966.43 1.61.43.538 0 .967-.108 1.396-.323.43-.215.752-.43.967-.859v1.074h1.718v-6.872h-1.718v.966Zm-.322 3.543c-.215.322-.43.537-.645.644-.322.215-.536.215-.858.215-.323 0-.645-.108-.86-.215-.322-.215-.536-.43-.644-.752-.107-.322-.214-.644-.214-1.073 0-.43.107-.752.214-1.074.215-.322.43-.537.645-.644.214-.108.536-.215.858-.215.323 0 .645.107.86.215.322.215.536.43.644.751.214.323.214.645.214 1.074.108.43 0 .752-.214 1.074ZM47.78 17.188h-1.718v1.717h-.859v1.396h.86v3.329c0 1.396.75 2.147 2.254 2.147h1.074v-1.503h-.86c-.214 0-.429 0-.536-.108a.82.82 0 0 1-.215-.536V20.3h1.503v-1.396H47.78v-1.718ZM55.294 22.663c0 .537-.107.966-.429 1.289-.322.322-.644.43-1.181.43-.43 0-.859-.108-1.074-.43-.322-.323-.43-.752-.43-1.289v-3.758h-1.717v4.08c0 .645.107 1.181.322 1.61.215.43.537.753.966.967.43.215.86.322 1.396.322.43 0 .86-.107 1.181-.214.322-.215.644-.43.86-.752v.859h1.717v-6.872h-1.718v3.758h.108ZM67.858 17.51c-.644-.43-1.396-.537-2.255-.537s-1.61.214-2.254.537c-.645.429-1.182.858-1.611 1.61-.43.644-.644 1.396-.644 2.255s.215 1.61.644 2.255a5.75 5.75 0 0 0 1.61 1.61c.645.43 1.396.537 2.255.537.86 0 1.61-.215 2.255-.537a5.75 5.75 0 0 0 1.61-1.61c.43-.645.645-1.396.645-2.255 0-.86-.215-1.61-.644-2.255-.322-.644-.86-1.181-1.61-1.61Zm.107 5.475c-.214.43-.536.752-.966.967-.43.214-.859.322-1.396.322-.537 0-.966-.108-1.395-.322a2.107 2.107 0 0 1-.967-.967c-.215-.43-.322-.966-.322-1.503 0-.537.107-1.073.322-1.503.215-.43.537-.752.966-.966.43-.215.86-.322 1.396-.322.537 0 .967.107 1.396.322.43.214.752.536.966.966.215.43.322.966.322 1.503 0 .537-.107 1.074-.322 1.503ZM73.01 19.979v-1.074h-1.717v6.872h1.718V22.34c0-.644.107-1.074.43-1.396.322-.215.644-.43 1.288-.43h.43V18.69c-.43 0-.86.108-1.29.322-.321.323-.643.537-.858.967ZM81.171 19.872c-.215-.323-.537-.537-.966-.752a2.972 2.972 0 0 0-1.396-.322c-.644 0-1.074.107-1.61.43-.43.321-.86.75-1.182 1.288-.322.537-.43 1.18-.43 1.825 0 .752.108 1.288.43 1.825.323.537.645.967 1.181 1.289.43.322.967.43 1.611.43.537 0 .966-.108 1.396-.323.43-.215.751-.43.966-.859v1.074h1.718v-6.872h-1.718v.966Zm-.215 3.543c-.214.322-.43.537-.644.644-.322.215-.537.215-.859.215-.322 0-.644-.108-.859-.215-.322-.215-.537-.43-.644-.752-.215-.322-.215-.644-.215-1.073 0-.43.108-.752.215-1.074.215-.322.43-.537.644-.644.215-.108.537-.215.86-.215.321 0 .643.107.858.215.322.215.537.43.644.751.215.323.215.645.215 1.074 0 .43-.107.752-.215 1.074Z"/><path fill="#fff" d="M47.995 7.309v5.261h2.363V7.202c0-.752-.108-1.504-.323-2.04-.214-.537-.644-.967-1.073-1.289-.43-.322-1.074-.43-1.718-.43-.43 0-.967.108-1.396.323-.43.215-.752.43-1.074.644V.115h-2.362v12.348h2.362V7.094c0-.214 0-.43.108-.644.107-.215.214-.322.322-.537.107-.107.322-.215.537-.322.214-.107.43-.107.751-.107.322 0 .537 0 .752.107.215.107.322.322.43.537.321.537.321.859.321 1.181ZM37.042 12.57h2.47V5.913h1.718V3.658h-1.718V1.296h-2.47v2.362h-1.718v2.255h1.718v6.657ZM27.702 4.517l-.215-.215c-.322-.214-.644-.43-.966-.536a4.005 4.005 0 0 0-1.289-.215c-.751 0-1.503.215-2.147.644-.644.43-1.074.966-1.503 1.61-.322.645-.537 1.504-.537 2.363s.215 1.718.537 2.362c.322.644.859 1.288 1.396 1.61.644.43 1.288.645 2.04.645.43 0 .859-.108 1.18-.215a5.014 5.014 0 0 0 1.074-.537l.323-.322v.859h2.469V3.658h-2.47v.86h.108Zm-.215 4.94c-.215.321-.43.643-.752.858a1.814 1.814 0 0 1-1.073.322c-.43 0-.752-.107-1.074-.322-.322-.215-.537-.537-.752-.859-.214-.322-.214-.859-.214-1.288 0-.43.107-.86.215-1.289.214-.322.429-.644.751-.859a1.814 1.814 0 0 1 1.074-.322c.43 0 .751.108 1.073.322.323.215.537.43.752.86.215.321.322.75.322 1.288l-.322 1.288ZM34.143.33h-2.47v12.348h2.47V.33ZM2.792 7.954h4.724v4.617h2.47V.975h-2.47v4.617H2.792V.975H.322V12.57h2.47V7.954ZM126.803.33h-2.469v12.348h2.469V.33ZM158.37 12.248s-.537-.537-.966-1.181c-.108-.215-.323-.752-.43-.966v-.108c0-.107-.107-.537-.107-.751V.222h-2.362v4.08l-.108-.107c-.322-.214-.644-.43-1.073-.537-.43-.107-.859-.214-1.289-.214-.752 0-1.503.214-2.147.644-.645.43-1.074.966-1.503 1.61-.323.645-.537 1.504-.537 2.363s.214 1.718.537 2.362c.322.644.858 1.288 1.503 1.61.644.43 1.395.645 2.147.645.43 0 .859-.108 1.181-.215.43-.108.752-.322 1.074-.537.107-.107.215-.107.322-.215v.752h4.187l-.429-.215Zm-4.08-2.792c-.215.323-.43.645-.752.86a1.812 1.812 0 0 1-1.073.321c-.43 0-.752-.107-1.074-.322-.322-.214-.537-.536-.752-.859-.214-.322-.322-.858-.322-1.288 0-.537.108-.966.322-1.288.215-.43.43-.645.752-.86a1.813 1.813 0 0 1 1.074-.321c.429 0 .751.107 1.073.322.322.214.537.536.752.859.215.43.322.859.322 1.288-.107.43-.107.859-.322 1.288ZM18.575 12.14c.43-.214.751-.43 1.073-.751l.108-.108-1.181-1.718-.322.108c-.323.322-.752.537-.967.644-.322.107-.644.215-.966.215-.537 0-.966-.108-1.396-.322-.43-.215-.644-.537-.859-.86-.107-.214-.215-.321-.215-.644h6.12v-.858a4.45 4.45 0 0 0-.322-1.718c-.214-.537-.537-.967-.859-1.396-.322-.43-.859-.644-1.288-.967-1.074-.429-2.47-.429-3.436 0-.537.215-1.074.537-1.396.967-.43.43-.751.966-.966 1.503-.215.537-.322 1.181-.322 1.933 0 .859.215 1.61.644 2.362a4.97 4.97 0 0 0 1.718 1.61c.752.43 1.503.537 2.47.537.429 0 .858-.107 1.288-.215.215 0 .644-.107 1.074-.322Zm-4.617-5.368c.214-.322.43-.644.751-.752.322-.214.752-.322 1.181-.322.322 0 .537.107.86.215.214.107.429.322.644.537.107.214.214.43.214.644H13.85c0-.215 0-.322.108-.322ZM58.731 8.061v-.966l-.107-.752c0-.322 0-.644-.108-1.074l5.691 7.516h2.255V.975h-2.47V6.987c0 .43 0 .752.108 1.074v.537L58.41.975h-2.148v11.703h2.47V8.06ZM111.557 4.732c-.322-.43-.859-.752-1.288-.967-1.074-.429-2.47-.429-3.436 0-.537.215-1.074.537-1.396.967-.43.43-.752.966-.966 1.503-.215.537-.323 1.181-.323 1.933 0 .859.215 1.61.645 2.362a4.963 4.963 0 0 0 1.718 1.61c.751.43 1.503.537 2.469.537.43 0 .859-.107 1.289-.215.429-.107.858-.214 1.181-.43.429-.214.751-.428 1.073-.75l.108-.108-1.181-1.718-.43.215c-.322.322-.751.537-.966.644-.322.107-.644.215-.967.215a2.97 2.97 0 0 1-1.395-.322c-.43-.215-.645-.537-.859-.86-.108-.214-.215-.321-.215-.644h6.12v-.858c0-.645-.107-1.182-.322-1.718-.215-.537-.537-.967-.859-1.396Zm-5.046 2.255c0-.108.107-.215.107-.323.107-.322.429-.644.752-.751.322-.215.751-.322 1.181-.322.322 0 .536.107.859.215.214.107.429.322.644.536.107.215.215.43.215.645h-3.758ZM134.749 4.517l-.215-.215c-.322-.214-.644-.43-.966-.536a4.007 4.007 0 0 0-1.289-.215c-.751 0-1.503.215-2.147.644-.644.43-1.074.966-1.503 1.61-.322.645-.537 1.504-.537 2.363s.215 1.718.537 2.362c.322.644.859 1.288 1.395 1.61.645.43 1.289.645 2.04.645.43 0 .859-.108 1.182-.215a5.01 5.01 0 0 0 1.073-.537l.322-.322v.859h2.47V3.658h-2.47v.86h.108Zm-.215 4.94c-.215.321-.429.643-.752.858-.644.43-1.61.43-2.147 0-.322-.215-.537-.537-.752-.859-.214-.322-.214-.751-.214-1.288 0-.43.107-.86.214-1.289.215-.322.43-.644.752-.859a1.813 1.813 0 0 1 1.074-.322c.429 0 .751.108 1.073.322.323.215.537.43.752.86.215.321.322.75.322 1.288 0 .43-.107.859-.322 1.288ZM120.469 4.517l-.214-.215c-.322-.214-.645-.43-.967-.536A4 4 0 0 0 118 3.55c-.752 0-1.503.215-2.147.644-.645.43-1.074.966-1.504 1.61-.322.645-.537 1.504-.537 2.363s.215 1.718.537 2.362c.322.644.859 1.288 1.396 1.61.644.43 1.289.645 2.04.645.43 0 .859-.108 1.181-.215a5.016 5.016 0 0 0 1.074-.537l.322-.322v.859h2.47V3.658h-2.47v.86h.107Zm-.214 4.94c-.215.321-.43.643-.752.858-.644.43-1.61.43-2.147 0-.322-.215-.537-.537-.752-.859-.215-.322-.215-.751-.215-1.288 0-.43.108-.86.215-1.289.215-.322.43-.644.752-.859a1.813 1.813 0 0 1 1.073-.322c.43 0 .752.108 1.074.322.322.215.537.43.752.86.214.321.322.75.322 1.288l-.322 1.288ZM103.183 2.693V.975h-8.697v2.362h5.261l-5.69 7.516v1.718h9.341v-2.363H97.6l5.583-7.515ZM145.057 3.98c-.429-.322-1.073-.43-1.718-.43-.429 0-.966.108-1.395.323-.43.215-.752.43-1.074.751v-.858h-2.362v8.911h2.362V7.31c0-.215 0-.43.107-.644.108-.215.215-.323.322-.537.108-.108.323-.215.537-.322.215-.108.43-.108.752-.108s.537 0 .751.108c.215.107.323.322.43.536.107.215.107.537.107.967v5.26h2.362V7.202c0-.751-.107-1.503-.322-2.04 0-.537-.322-.966-.859-1.18ZM85.681 8.812l-1.718-3.865h-1.395L80.85 8.812l-1.611-5.154h-2.47l3.007 8.912h1.718l1.718-4.295 1.825 4.295h1.718l3.006-8.912h-2.47l-1.61 5.154ZM76.125 11.389l.107-.108-1.18-1.718-.216.108c-.322.322-.751.537-.966.644-.322.107-.644.215-.966.215-.537 0-.966-.108-1.396-.322-.43-.215-.644-.537-.859-.86-.107-.214-.215-.321-.215-.644h6.12v-.858a4.45 4.45 0 0 0-.322-1.718c-.214-.537-.537-.967-.859-1.396-.322-.43-.859-.752-1.288-.967-1.074-.429-2.47-.429-3.436 0-.537.215-1.074.537-1.396.967-.43.43-.751.966-.966 1.503-.215.537-.322 1.181-.322 1.933 0 .859.215 1.61.644 2.362a4.97 4.97 0 0 0 1.718 1.61c.752.43 1.503.537 2.47.537.429 0 .858-.107 1.288-.215.43-.107.859-.214 1.181-.43.107-.106.537-.321.859-.643Zm-5.69-4.617c.214-.322.429-.644.75-.752.323-.214.752-.322 1.182-.322.322 0 .537.107.859.215.215.107.43.322.644.537.108.214.215.43.215.644h-3.758c0-.215.107-.322.107-.322Z"/></svg>